<?xml version="1.0" standalone="no"?>
<!DOCTYPE svg PUBLIC "-//W3C//DTD SVG 20010904//EN"
 "http://www.w3.org/TR/2001/REC-SVG-20010904/DTD/svg10.dtd">
<svg version="1.0" xmlns="http://www.w3.org/2000/svg"
 width="700.000000pt" height="700.000000pt" viewBox="0 0 700.000000 700.000000"
 preserveAspectRatio="xMidYMid meet">
<metadata>
Created by potrace 1.14, written by Peter Selinger 2001-2017
</metadata>
<g transform="translate(0.000000,700.000000) scale(0.100000,-0.100000)"
fill="#000000" stroke="none">
<path d="M4110 6120 c-72 -20 -126 -66 -154 -130 -13 -32 -73 -236 -81 -281
-2 -9 -29 -109 -60 -221 -31 -112 -58 -210 -60 -218 -5 -22 -193 -714 -215
-790 -10 -36 -64 -234 -120 -440 -56 -206 -108 -397 -116 -425 -22 -77 -265
-968 -269 -988 -5 -24 -52 -192 -87 -313 -16 -56 -31 -112 -33 -125 -3 -13
-28 -105 -56 -204 -27 -99 -52 -189 -54 -201 -3 -11 -43 -159 -89 -330 -47
-170 -87 -324 -90 -342 -7 -54 20 -126 64 -171 104 -105 278 -78 347 53 13 25
64 194 78 263 3 12 51 187 106 390 56 202 119 431 139 508 21 77 59 217 85
310 25 94 62 229 81 300 19 72 42 153 50 180 13 47 381 1393 389 1425 17 70
95 351 99 358 3 5 8 23 11 40 3 16 23 97 46 179 22 81 76 276 118 433 43 157
91 332 107 390 42 151 33 219 -36 289 -53 53 -136 79 -200 61z"/>
<path d="M1897 5236 c-21 -8 -48 -22 -60 -33 -12 -10 -372 -367 -799 -794
-588 -586 -783 -787 -798 -820 -25 -56 -25 -122 0 -178 15 -33 215 -238 808
-830 433 -433 805 -798 827 -810 101 -59 254 -6 300 105 20 48 19 130 -3 177
-11 25 -255 275 -722 742 l-704 705 699 700 c394 393 709 716 720 737 25 48
26 134 1 185 -50 104 -163 152 -269 114z"/>
<path d="M4957 5236 c-120 -43 -179 -189 -121 -300 10 -20 334 -351 719 -736
l699 -700 -704 -705 c-505 -504 -710 -716 -723 -745 -24 -55 -24 -117 2 -175
34 -76 98 -121 185 -128 100 -9 65 -40 928 823 602 602 803 808 818 841 25 56
25 122 -1 179 -29 64 -1575 1610 -1640 1639 -51 24 -108 26 -162 7z"/>
</g>
</svg>
